<?xml version="1.0" encoding="UTF-8" standalone="no"?>
<!-- Created with Inkscape (http://www.inkscape.org/) -->

<svg
   xmlns:dc="http://purl.org/dc/elements/1.1/"
   xmlns:cc="http://creativecommons.org/ns#"
   xmlns:rdf="http://www.w3.org/1999/02/22-rdf-syntax-ns#"
   xmlns:svg="http://www.w3.org/2000/svg"
   xmlns="http://www.w3.org/2000/svg"
   xmlns:sodipodi="http://sodipodi.sourceforge.net/DTD/sodipodi-0.dtd"
   xmlns:inkscape="http://www.inkscape.org/namespaces/inkscape"
   width="420.00003"
   height="420"
   id="svg3043"
   version="1.1"
   inkscape:version="0.48.2 r9819"
   sodipodi:docname="telehash.svg"
   inkscape:export-filename="/Users/simmons/work/telehash/icon/telehash.png"
   inkscape:export-xdpi="15.43"
   inkscape:export-ydpi="15.43">
  <defs
     id="defs3045">
    <linearGradient
       id="linearGradient3935">
      <stop
         style="stop-color:#b700c3;stop-opacity:1;"
         offset="0"
         id="stop3937" />
      <stop
         style="stop-color:#3b694c;stop-opacity:1;"
         offset="1"
         id="stop3939" />
    </linearGradient>
  </defs>
  <sodipodi:namedview
     id="base"
     pagecolor="#ffffff"
     bordercolor="#666666"
     borderopacity="1.0"
     inkscape:pageopacity="0.0"
     inkscape:pageshadow="2"
     inkscape:zoom="0.55437173"
     inkscape:cx="172.39796"
     inkscape:cy="189.41321"
     inkscape:document-units="px"
     inkscape:current-layer="layer1"
     showgrid="false"
     inkscape:window-width="1680"
     inkscape:window-height="1002"
     inkscape:window-x="0"
     inkscape:window-y="0"
     inkscape:window-maximized="1"
     fit-margin-top="0"
     fit-margin-left="0"
     fit-margin-right="0"
     fit-margin-bottom="0" />
  <metadata
     id="metadata3048">
    <rdf:RDF>
      <cc:Work
         rdf:about="">
        <dc:format>image/svg+xml</dc:format>
        <dc:type
           rdf:resource="http://purl.org/dc/dcmitype/StillImage" />
        <dc:title></dc:title>
      </cc:Work>
    </rdf:RDF>
  </metadata>
  <g
     inkscape:groupmode="layer"
     id="layer2"
     inkscape:label="Background"
     style="display:inline"
     transform="translate(-159.2921,-414.99805)">
    <rect
       style="fill:#cbe9cd;fill-opacity:1;stroke:#cbe9cd;stroke-width:76.36363983;stroke-linejoin:round;stroke-miterlimit:4;stroke-opacity:1;stroke-dasharray:none"
       id="rect3948"
       width="343.63638"
       height="343.63635"
       x="197.47392"
       y="453.17987" />
  </g>
  <g
     inkscape:label="Layer 1"
     inkscape:groupmode="layer"
     id="layer1"
     style="display:inline"
     transform="translate(-159.2921,-414.99805)">
    <path
       inkscape:connector-curvature="0"
       id="path4597"
       d="m 369.71436,456.94622 c -48.41621,0.11293 -75.98296,1.99685 -110.32449,9.37421 -30.60388,6.57518 -53.62418,13.66293 -62.16729,17.92005 -24.69694,12.30605 -23.71751,22.75175 -21.83272,35.80755 1.88513,13.05627 4.58078,30.25521 8.38963,39.51933 2.53988,6.18039 5.09844,11.5507 17.59722,12.39431 12.49884,0.84326 54.4499,1.19818 65.41396,0.86865 19.62869,-0.5902 17.95259,-8.02122 20.22588,-17.53218 2.27396,-9.51065 2.05685,-30.89702 9.29493,-37.61636 7.53457,-6.99421 13.75929,-6.87555 24.71766,-8.20251 10.47604,-1.26792 45.59502,-1.32767 48.7374,-1.33091 0.0152,2e-4 0.13223,-1.4e-4 0.17631,-1.8e-4 3.14266,-0.003 38.26154,-0.024 48.74004,1.23023 10.96137,1.3039 17.18745,1.17231 24.73525,8.15073 7.2526,6.70486 7.07887,28.09172 9.37335,37.59782 2.29363,9.50553 0.63268,16.94022 20.26205,17.49037 10.96451,0.30624 52.91481,-0.13314 65.41132,-1.00447 12.49687,-0.86929 15.04412,-6.24607 17.57158,-12.43064 3.78985,-9.27183 6.44975,-26.47651 8.30798,-39.53658 1.85794,-13.06035 2.81546,-23.50715 -21.90684,-35.76216 -8.55097,-4.24038 -31.58681,-11.27967 -62.20421,-17.79162 -34.35669,-7.30641 -61.92727,-9.13056 -110.34362,-9.14632 l -0.17631,1.8e-4 z"
       style="fill:#792042;fill-opacity:1;stroke:none" />
    <text
       xml:space="preserve"
       style="font-size:144px;font-style:normal;font-weight:normal;line-height:125%;letter-spacing:0px;word-spacing:0px;fill:#000000;fill-opacity:1;stroke:none;font-family:Sans"
       x="-595.42932"
       y="808.3338"
       id="text3138"
       sodipodi:linespacing="125%"><tspan
         sodipodi:role="line"
         id="tspan3140"
         x="-595.42932"
         y="808.3338" /></text>
    <text
       xml:space="preserve"
       style="font-size:40px;font-style:normal;font-weight:normal;line-height:125%;letter-spacing:0px;word-spacing:0px;fill:#0000a2;fill-opacity:1;stroke:none;font-family:Sans"
       x="207.22272"
       y="783.96057"
       id="text3144"
       sodipodi:linespacing="125%"><tspan
         sodipodi:role="line"
         id="tspan3146"
         x="207.22272"
         y="783.96057"
         style="font-size:360px;fill:#0000a2;fill-opacity:1">#</tspan></text>
  </g>
</svg>
